<svg width="580" height="400" xmlns="http://www.w3.org/2000/svg">
 <!-- Created with Method Draw - http://github.com/duopixel/Method-Draw/ -->
 <defs>
  <filter height="200%" width="200%" y="-50%" x="-50%" id="svg_1_blur">
   <feGaussianBlur stdDeviation="0.5" in="SourceGraphic"/>
  </filter>
 </defs>
 <g>
  <title>background</title>
  <rect fill="#fff" id="canvas_background" height="402" width="582" y="-1" x="-1"/>
  <g display="none" overflow="visible" y="0" x="0" height="100%" width="100%" id="canvasGrid">
   <rect fill="url(#gridpattern)" stroke-width="0" y="0" x="0" height="100%" width="100%"/>
  </g>
 </g>
 <g>
  <title>Layer 1</title>
  <rect rx="15" filter="url(#svg_1_blur)" id="svg_1" height="198" width="129" y="84.453125" x="118.934783" stroke-width="1.5" stroke="#000" fill="#fff"/>
  <text stroke="#000" transform="matrix(1.4998372793197632,0,0,1.5555555820465088,-73.72599869966507,-60.80729456618428) " xml:space="preserve" text-anchor="start" font-family="Helvetica, Arial, sans-serif" font-size="24" id="svg_2" y="131.453125" x="147.5" stroke-width="0" fill="#000000">LCD</text>
  <path stroke="#000" d="m143.5,253.453125c0,0 0.38269,-1.883221 0,-3.5c-0.541199,-2.286488 -1,-3.5 -2,-8.75l0,-1.75" id="svg_3" fill-opacity="null" stroke-opacity="null" stroke-width="0" fill="none"/>
  <path stroke="#000" transform="rotate(-90 227.02781677246097,300.82220458984375) " id="svg_7" d="m231.697928,330.992845c2.320581,-0.990145 4.223978,-1.912185 0.61918,-1.939169c-3.183549,0.4974 -11.419106,-3.158658 -4.818647,-4.955698c4.129335,-1.874284 13.526786,2.454886 13.576878,-4.950233c-0.747,-4.640744 -12.868915,-1.017286 -8.881199,-7.241136c4.391736,-2.087574 13.100192,2.831019 14.57343,-3.628757c-1.350503,-6.263521 -9.79752,-2.266168 -14.043206,-3.997193c-4.115858,0.986929 -5.199768,-5.304853 -0.580442,-4.355185c10.678613,-0.669737 21.43171,0.31318 32.073534,-1.053584c1.719013,-1.10691 2.989707,-7.916008 0.820384,-8.374544c-15.501855,-0.373411 -31.031105,-0.030193 -46.508422,-1.144007c-5.560489,-0.067135 -1.31197,-6.969549 2.796916,-5.348538c3.913949,-1.489954 5.465058,-5.396723 8.337638,-9.254351c1.467931,-8.432038 -5.587103,-5.302444 -8.46833,-2.835035c-3.217308,2.451991 -8.751198,7.541631 -11.686876,10.213496c-2.573416,2.163219 -8.502378,4.563653 -12.109023,7.463417c-3.082831,1.273615 -6.456379,0.63954 -9.484285,0.868241c0,11.424475 0,22.848782 0,34.273253c8.566454,4.336238 17.580741,8.145192 27.077803,7.709469c5.56332,-0.026335 11.286436,0.215539 16.704662,-1.450443l0.000003,-0.000003zm-35.294184,3.664252c-4.373049,-1.953305 -8.738166,-3.931501 -13.071594,-6.001087c0.207377,-14.266737 0.414751,-28.533633 0.622116,-42.80037c3.459846,-0.152743 8.593685,1.842321 11.05978,-1.095343c6.630228,-2.473833 10.934917,-7.945402 16.747249,-12.052125c4.090322,-3.736365 7.357479,-5.011586 11.58223,-7.845181c3.208886,-1.725083 4.946344,-0.844153 8.559742,-0.09203c1.575966,2.998054 3.532407,4.547595 2.517192,10.258948c-2.118394,1.238766 -4.867501,9.564643 -0.704507,9.630811c11.589808,1.291119 23.366231,-0.523581 34.864871,1.73295c2.863254,4.506315 3.409308,14.630191 -1.831132,17.487878c-5.014997,1.685566 -10.302597,0.849447 -15.455035,1.052134c-0.000313,4.263159 0.605985,9.703563 -3.464391,11.845099c-3.005537,4.557072 -3.216895,11.251661 -8.059916,14.586189c-4.073128,4.851942 -9.871328,6.350739 -15.526911,6.190772c-9.273768,0.146152 -19.035245,1.179652 -27.839691,-2.898327l0,-0.000323l-0.000003,0.000007z" fill-opacity="null" stroke-opacity="null" stroke-width="1.5" fill="#fff"/>
  <path d="m232.391312,250.434784c0,0 0.434769,0 0.869553,0c0.434784,0 1.304352,0 1.739136,0c0.869568,0 1.757095,-0.803146 3.478256,-1.304352c2.640152,-0.768814 4.844284,-2.070175 7.826096,-3.91304c2.667007,-1.6483 5.316895,-3.360703 7.391296,-5.217392c2.290802,-2.050385 4.211151,-4.879089 6.086975,-7.391312c2.031647,-2.720932 4.438629,-5.593842 6.086945,-8.260864c1.842865,-2.981812 4.051575,-6.45697 5.217377,-9.130432c1.484863,-3.405121 3.043488,-7.391312 4.347839,-10.869568c1.304352,-3.478256 2.796936,-6.435837 3.913055,-9.130432c1.052307,-2.540497 1.639954,-5.269363 3.043457,-7.82608c1.219971,-2.222366 2.449127,-4.868713 3.913055,-7.391312c1.573669,-2.711716 3.574158,-5.578827 5.217377,-7.82608c1.850586,-2.530853 3.360718,-4.882111 5.217407,-6.956528c1.640289,-1.832657 3.24881,-3.683609 5.217377,-5.652176c1.968567,-1.968567 3.74115,-4.534531 6.086975,-6.521744c2.85379,-2.417526 5.735229,-4.670792 8.695648,-6.956512c2.687836,-2.075272 4.724274,-3.569092 7.391296,-5.217392c2.981812,-1.842865 6.202606,-3.103912 9.565216,-4.347824c2.735443,-1.011917 5.671783,-2.108017 8.695648,-3.043488c2.626984,-0.812698 4.371094,-1.539337 5.217407,-1.73912c0.946198,-0.223373 1.304352,-0.434784 1.739136,-0.434784c0.869537,0 1.510529,0.369843 1.739105,0c0.511108,-0.827011 -1.171021,-1.069046 -1.739105,-1.304352c-0.401703,-0.166382 -0.562134,-0.12735 -0.869568,-0.434784c-0.307434,-0.307434 -0.562134,-0.12735 -0.869568,-0.434784c-0.307434,-0.307434 -0.869568,0 -0.434784,0c0.434784,0 0.902649,-0.166382 1.304352,0c0.568085,0.235306 1.304352,0.434784 1.739105,0.434784c0.434784,0 0.869568,0.434784 1.304352,0.434784c0.434784,0 0.996918,-0.307434 1.304352,0c0.307434,0.307434 0.434784,0.434784 0.434784,0.869568c0,0.434784 -0.12735,0.562134 -0.434784,0.869568c-0.614868,0.614868 -0.211426,1.227707 -0.434784,2.173904c-0.099884,0.423157 -0.634277,0.736282 -0.869568,1.304352c-0.166382,0.401688 0.12735,0.307434 0.434784,0c0.307434,-0.307434 0.199493,-0.736282 0.434784,-1.304352c0.166382,-0.401688 0,-0.869568 0,-1.304352l0,-0.434769l0,-0.434784" id="svg_8" fill-opacity="null" stroke-opacity="null" stroke-width="1.5" stroke="#000" fill="none"/>
  <text font-weight="bold" font-style="normal" stroke="#000" transform="matrix(0.9944175436598712,0,0,1.171987533569336,-31.95982188900789,-20.260996693265042) " xml:space="preserve" text-anchor="start" font-family="'Courier New', Courier, monospace" font-size="9" id="svg_9" y="123.924887" x="394.010479" fill-opacity="null" stroke-opacity="null" stroke-width="0" fill="#000000">- Envia comando da task_mxt p/ task_lcd</text>
  <text font-weight="bold" xml:space="preserve" text-anchor="start" font-family="'Courier New', Courier, monospace" font-size="9" id="svg_10" y="134.347826" x="359.78261" fill-opacity="null" stroke-opacity="null" stroke-width="0" stroke="#000" fill="#000000">- Comando enviado para xQueueCommand</text>
  <text font-weight="bold" xml:space="preserve" text-anchor="start" font-family="'Courier New', Courier, monospace" font-size="9" id="svg_11" y="144.347824" x="360.217391" fill-opacity="null" stroke-opacity="null" stroke-width="0" stroke="#000" fill="#000000">- Ativa task</text>
 </g>
</svg>